<svg xmlns="http://www.w3.org/2000/svg" viewBox="0 0 107.32 106.82"><defs><style>.cls-1{fill:none;}.cls-2{fill:#5a96ff;stroke:#5a96ff;stroke-miterlimit:10;}</style></defs><title>logo-blue</title><g id="Layer_2" data-name="Layer 2"><g id="Layer_1-2" data-name="Layer 1"><circle class="cls-1" cx="53.66" cy="53.66" r="53.16"/><path class="cls-2" d="M17.33,89.18c.3-2.46.34-2,.84-5.78.46-3.46.63-5.34.67-5.81.19-2.11.17-2.91.75-7.58,0-.16.87-7,0-11.38-.1-.5-.2-.89-.2-.89a33.18,33.18,0,0,1-2-4.63,22.47,22.47,0,0,1-1.51-6.45c.08-5.31,7.61-12.92,15.61-11.32,4.64.93,8.43,4.75,10,9.72l.16.09H65.55l.16-.1a13.91,13.91,0,0,1,10-9.72c7.54-1.65,15,4.44,15.83,9.68a19,19,0,0,1-.5,6,32.61,32.61,0,0,1-1.85,6.17c-.83,2.23-.64,6.9.23,16.13.62,6.62,1.15,12.26,1.46,14.88.14,1.18.27,2.2.38,3A53.17,53.17,0,1,0,17,92.17C17.09,91.37,17.19,90.4,17.33,89.18Z"/><path class="cls-2" d="M52.7,97c10.52.55,17.64-9.48,18.07-16.78.16-2.74-.62-5.09-1.68-8.25A27.35,27.35,0,0,0,62.33,60.5,15.1,15.1,0,0,0,54.58,56a10,10,0,0,0-2.63-.21c-4,.26-6.76,3.21-8.31,4.91a27,27,0,0,0-5.94,11.87c-.89,3.32-1.51,5.65-1.24,8.41C37.13,87.7,43.17,96.51,52.7,97Zm.68-27.65c3.4-.1,8.08,1,8.27,3s-4.14,4.74-8.24,4.73c-3.86,0-8-2.51-7.89-4.43S50.19,69.45,53.38,69.36Z"/></g></g></svg>