<svg xmlns="http://www.w3.org/2000/svg" viewBox="0 0 460.8 386.58"><defs><style>.cls-1{fill:#fff;}</style></defs><title>briefcase-white</title><g id="Layer_2" data-name="Layer 2"><g id="Layer_1-2" data-name="Layer 1"><path class="cls-1" d="M16.27,386.58H444.53a16.1,16.1,0,0,0,16.27-16.27V81.36a16.1,16.1,0,0,0-16.27-16.27H320.3V16.27A16.1,16.1,0,0,0,304,0H157.17A16.1,16.1,0,0,0,140.9,16.27V65.49H16.27A16.1,16.1,0,0,0,0,81.76V370.7a16.54,16.54,0,0,0,16.27,15.88Zm157.17-354H287.75V65.49H173.44V32.55ZM32.55,97.64H153.2a16.27,16.27,0,0,0,7.14,0H300.06a16.27,16.27,0,0,0,7.14,0H427.86V209.56H320.3V190.11a16.27,16.27,0,0,0-32.55,0v19.45H173.44V190.11a16.27,16.27,0,0,0-32.55,0v19.45H32.55V97.64Zm0,144.47H140.9v18.26a16.27,16.27,0,0,0,32.55,0V242.11H287.75v18.26a16.27,16.27,0,0,0,32.55,0V242.11H428.65V354H32.55V242.11Z"/></g></g></svg>