<svg xmlns="http://www.w3.org/2000/svg" viewBox="0 0 89.74 81.48"><defs><style>.cls-1{fill:#969696;}</style></defs><title>bruinmeet</title><g id="Layer_2" data-name="Layer 2"><g id="Layer_1-2" data-name="Layer 1"><path class="cls-1" d="M14.21,74.86c.25-2.07.28-1.69.71-4.88.39-2.92.53-4.51.57-4.91.16-1.78.14-2.45.63-6.4,0-.14.73-5.9,0-9.6-.08-.42-.16-.75-.16-.75a28,28,0,0,1-1.7-3.91A19,19,0,0,1,13,39c.07-4.49,6.42-10.9,13.18-9.55,3.92.78,7.11,4,8.43,8.21l.14.08H54.91l.14-.08a11.74,11.74,0,0,1,8.43-8.21c6.36-1.4,12.66,3.75,13.36,8.17a16,16,0,0,1-.42,5.07,27.53,27.53,0,0,1-1.56,5.21c-.7,1.88-.54,5.83.19,13.62.52,5.59,1,10.34,1.23,12.56.12,1,.23,1.86.32,2.56A44.88,44.88,0,1,0,14,77.38C14,76.7,14.08,75.88,14.21,74.86Z"/><path class="cls-1" d="M44.06,81.46c8.88.46,14.89-8,15.25-14.17.14-2.32-.53-4.3-1.42-7a23.09,23.09,0,0,0-5.71-9.68,12.74,12.74,0,0,0-6.54-3.83,8.47,8.47,0,0,0-2.22-.17c-3.38.22-5.71,2.71-7,4.15a22.8,22.8,0,0,0-5,10c-.75,2.8-1.28,4.77-1,7.1C30.92,73.61,36,81,44.06,81.46Zm.58-23.34c2.87-.08,6.82.88,7,2.53s-3.49,4-7,4c-3.26,0-6.77-2.12-6.66-3.74S41.94,58.2,44.64,58.12Z"/></g></g></svg>