<svg width="1438" height="314" viewBox="0 0 1438 314" version="1.1" xmlns="http://www.w3.org/2000/svg" xmlns:xlink="http://www.w3.org/1999/xlink">
<title>Group</title>
<desc>Created using Figma</desc>
<g id="Canvas" transform="translate(3808 -1738)">
<g id="Group">
<g id="BruinMeet">
<use xlink:href="#path0_fill" transform="translate(-3417 1766)"/>
</g>
<g id="Layer 2">
<g id="Layer 1">
<g id="Vector">
<use xlink:href="#path1_fill" transform="translate(-3808 1738)"/>
</g>
<g id="Vector">
<use xlink:href="#path2_fill" transform="translate(-3691.09 1917.38)"/>
</g>
</g>
</g>
</g>
</g>
<defs>
<path id="path0_fill" d="M 87.718 66C 101.985 66 113.185 69.1333 121.318 75.4C 129.585 81.5333 133.718 90.0667 133.718 101C 133.718 109 131.451 115.8 126.918 121.4C 122.385 126.867 116.185 130.533 108.318 132.4C 118.051 133.867 125.651 137.8 131.118 144.2C 136.718 150.467 139.518 158.333 139.518 167.8C 139.518 179.8 134.985 189.2 125.918 196C 116.985 202.667 104.585 206 88.718 206L 27.918 206L 27.918 66L 87.718 66ZM 86.718 125.4C 95.3846 125.4 102.051 123.6 106.718 120C 111.518 116.267 113.918 111 113.918 104.2C 113.918 97.5333 111.518 92.4 106.718 88.8C 102.051 85.2 95.3846 83.4667 86.718 83.6L 47.118 83.6L 47.118 125.4L 86.718 125.4ZM 86.718 188.4C 97.118 188.533 105.251 186.6 111.118 182.6C 116.985 178.467 119.918 172.733 119.918 165.4C 119.918 158.333 116.985 152.8 111.118 148.8C 105.251 144.8 97.118 142.8 86.718 142.8L 47.118 142.8L 47.118 188.4L 86.718 188.4ZM 187.101 123C 190.567 115.4 195.501 109.667 201.901 105.8C 208.301 101.8 215.901 99.7333 224.701 99.6L 224.701 117.6C 213.901 117.2 205.167 120 198.501 126C 191.834 132 188.034 140.067 187.101 150.2L 187.101 206L 168.501 206L 168.501 100.2L 187.101 100.2L 187.101 123ZM 338.468 100.2L 338.468 206L 319.668 206L 319.668 183.6C 312.735 198.667 299.668 206.333 280.468 206.6C 268.201 206.6 258.601 203 251.668 195.8C 244.735 188.467 241.268 178.4 241.268 165.6L 241.268 100.2L 260.068 100.2L 260.068 160.6C 260.068 169.533 262.468 176.533 267.268 181.6C 272.201 186.533 278.935 189 287.468 189C 297.335 188.867 305.135 185.4 310.868 178.6C 316.735 171.667 319.668 162.867 319.668 152.2L 319.668 100.2L 338.468 100.2ZM 374.751 100.2L 393.351 100.2L 393.351 206L 374.751 206L 374.751 100.2ZM 383.951 58C 387.284 58 390.017 59.1333 392.151 61.4C 394.417 63.6667 395.551 66.5333 395.551 70C 395.551 73.4667 394.417 76.3333 392.151 78.6C 390.017 80.8667 387.284 82 383.951 82C 380.617 82 377.817 80.8667 375.551 78.6C 373.417 76.3333 372.351 73.4667 372.351 70C 372.351 66.5333 373.417 63.6667 375.551 61.4C 377.817 59.1333 380.617 58 383.951 58ZM 488.434 99.6C 500.834 99.6 510.567 103.267 517.634 110.6C 524.7 117.8 528.234 127.8 528.234 140.6L 528.234 206L 509.634 206L 509.634 145.6C 509.634 136.667 507.1 129.733 502.034 124.8C 497.1 119.733 490.234 117.2 481.434 117.2C 471.967 117.333 464.234 120.4 458.234 126.4C 452.367 132.267 449.034 139.933 448.234 149.4L 448.234 206L 429.634 206L 429.634 100.2L 448.234 100.2L 448.234 122.6C 455.3 107.533 468.7 99.8667 488.434 99.6ZM 560.47 66L 591.07 66L 637.47 156.2L 683.47 66L 714.07 66L 714.07 206L 689.47 206L 689.47 105.6L 645.87 191.6L 628.67 191.6L 584.87 105.6L 584.87 206L 560.47 206L 560.47 66ZM 792.155 98.2C 809.222 98.2 822.022 103.067 830.555 112.8C 839.222 122.533 843.555 136.2 843.555 153.8C 843.555 157.267 843.489 159.867 843.355 161.6L 764.355 161.6C 766.089 169.2 769.622 175.2 774.955 179.6C 780.422 183.867 787.089 186 794.955 186C 800.422 186 805.622 185 810.555 183C 815.622 180.867 820.022 177.867 823.755 174L 837.755 188.6C 832.422 194.467 825.889 199 818.155 202.2C 810.555 205.4 802.089 207 792.755 207C 781.822 207 772.155 204.733 763.755 200.2C 755.489 195.667 749.089 189.333 744.555 181.2C 740.022 172.933 737.755 163.467 737.755 152.8C 737.755 142.133 740.022 132.667 744.555 124.4C 749.222 116.133 755.689 109.733 763.955 105.2C 772.222 100.533 781.622 98.2 792.155 98.2ZM 819.755 144.2C 819.489 136.333 816.889 130.067 811.955 125.4C 807.022 120.733 800.489 118.4 792.355 118.4C 784.755 118.4 778.355 120.733 773.155 125.4C 768.089 129.933 764.955 136.2 763.755 144.2L 819.755 144.2ZM 910.515 98.2C 927.582 98.2 940.382 103.067 948.915 112.8C 957.582 122.533 961.915 136.2 961.915 153.8C 961.915 157.267 961.848 159.867 961.715 161.6L 882.715 161.6C 884.448 169.2 887.982 175.2 893.315 179.6C 898.782 183.867 905.448 186 913.315 186C 918.782 186 923.982 185 928.915 183C 933.982 180.867 938.382 177.867 942.115 174L 956.115 188.6C 950.782 194.467 944.248 199 936.515 202.2C 928.915 205.4 920.448 207 911.115 207C 900.182 207 890.515 204.733 882.115 200.2C 873.848 195.667 867.448 189.333 862.915 181.2C 858.382 172.933 856.115 163.467 856.115 152.8C 856.115 142.133 858.382 132.667 862.915 124.4C 867.582 116.133 874.048 109.733 882.315 105.2C 890.582 100.533 899.982 98.2 910.515 98.2ZM 938.115 144.2C 937.848 136.333 935.248 130.067 930.315 125.4C 925.382 120.733 918.848 118.4 910.715 118.4C 903.115 118.4 896.715 120.733 891.515 125.4C 886.448 129.933 883.315 136.2 882.115 144.2L 938.115 144.2ZM 1046.87 199.4C 1038.34 204.6 1029.41 207.2 1020.07 207.2C 1010.87 207.2 1003.34 204.533 997.474 199.2C 991.608 193.733 988.674 185.733 988.674 175.2L 988.674 122.4L 973.674 122.4L 973.474 103.4L 988.674 103.4L 988.674 74L 1014.47 74L 1014.47 103.4L 1045.07 103.4L 1045.07 122.4L 1014.47 122.4L 1014.47 170.6C 1014.47 175.533 1015.41 179.067 1017.27 181.2C 1019.14 183.2 1021.94 184.2 1025.67 184.2C 1029.67 184.2 1034.74 182.733 1040.87 179.8L 1046.87 199.4Z"/>
<path id="path1_fill" d="M 54.8862 287.814C 55.8621 279.838 55.9922 281.329 57.6187 269.074C 59.1151 257.856 59.6682 251.761 59.7983 250.237C 60.4164 243.396 60.3513 240.802 62.2381 225.661C 62.2381 225.142 65.0682 202.966 62.2381 188.765C 61.9128 187.144 61.5875 185.879 61.5875 185.879C 59.0398 181.047 56.8648 176.029 55.0814 170.868C 52.4164 164.178 50.761 157.13 50.1692 149.956C 50.397 132.74 74.9575 108.067 100.982 113.255C 116.076 116.27 128.405 128.655 133.513 144.769L 134.033 145.06L 211.586 145.06L 212.106 144.736C 214.266 137.094 218.411 130.156 224.123 124.623C 229.835 119.089 236.911 115.156 244.637 113.222C 269.165 107.873 293.433 127.617 296.133 144.606C 296.631 151.136 296.082 157.703 294.506 164.06C 293.167 170.909 291.152 177.61 288.488 184.064C 285.788 191.294 286.406 206.435 289.236 236.36C 291.253 257.823 292.977 276.109 293.986 284.604C 294.441 288.43 294.864 291.737 295.222 294.33C 319.556 270.097 336.086 239.182 342.702 205.538C 349.317 171.893 345.716 137.046 332.359 105.452C 319.002 73.8571 296.496 46.9495 267.717 28.1679C 238.939 9.38631 205.194 -0.416081 170.798 0.0135408C 136.401 0.443162 102.914 11.0853 74.6161 30.5797C 46.3186 50.0742 24.4962 77.5355 11.938 109.454C -0.620223 141.372 -3.34384 176.298 4.11524 209.767C 11.5743 243.236 28.8773 273.728 53.8127 297.346C 54.1054 294.914 54.4307 291.769 54.8862 287.814Z"/>
<path id="path2_fill" d="M 53.0371 133.817C 87.2593 135.601 110.421 103.081 111.82 79.4135C 112.34 70.53 109.803 62.9108 106.355 52.6655C 102.215 38.6419 94.6604 25.8558 84.364 15.4453C 77.6529 8.10364 68.8601 2.96997 59.1529 0.72574C 56.3437 0.123184 53.4668 -0.105758 50.5973 0.0448848C 37.5851 0.887852 28.6067 10.4523 23.5644 15.964C 14.0251 26.9621 7.38416 40.155 4.2413 54.3515C 1.34608 65.1155 -0.67082 72.6698 0.207505 81.6182C 2.38705 103.633 22.0355 132.164 53.0371 133.817ZM 55.2492 44.171C 66.3096 43.8468 81.5339 47.4132 82.152 53.8976C 82.77 60.3819 68.6518 69.2655 55.3468 69.2331C 42.79 69.2331 29.3223 61.0952 29.6802 54.8702C 30.038 48.6452 44.872 44.4628 55.2492 44.171Z"/>
</defs>
</svg>
