<svg width="2377" height="1440" viewBox="0 0 2377 1440" version="1.1" xmlns="http://www.w3.org/2000/svg" xmlns:xlink="http://www.w3.org/1999/xlink">
<title>Frame</title>
<desc>Created using Figma</desc>
<g id="Canvas" transform="translate(1059 -4568)">
<clipPath id="clip-0" clip-rule="evenodd">
<path d="M -1059 4568L 1318 4568L 1318 6008L -1059 6008L -1059 4568Z" fill="#FFFFFF"/>
</clipPath>
<g id="Frame" clip-path="url(#clip-0)">
<path d="M -1059 4568L 1318 4568L 1318 6008L -1059 6008L -1059 4568Z" fill="#E0D1BD"/>
<g id="ant">
<g id="Group">
<g id="Group">
<g id="Vector">
<use xlink:href="#path0_fill" transform="translate(-36.0392 5278.52)" fill="#472914"/>
</g>
<g id="Vector">
<use xlink:href="#path1_fill" transform="translate(-55 5240.6)" fill="#472914"/>
</g>
<g id="Vector">
<use xlink:href="#path2_fill" transform="translate(-7.59839 5032)" fill="#472914"/>
</g>
<g id="Vector">
<use xlink:href="#path3_fill" transform="translate(144.106 5278.52)" fill="#472914"/>
</g>
<g id="Vector">
<use xlink:href="#path4_fill" transform="translate(172.555 5240.6)" fill="#472914"/>
</g>
<g id="Vector">
<use xlink:href="#path5_fill" transform="translate(172.557 5032)" fill="#472914"/>
</g>
</g>
<g id="Group">
<g id="Vector">
<use xlink:href="#path6_fill" transform="translate(77.74 5032.01)" fill="#BDC3C7"/>
</g>
<g id="Vector">
<use xlink:href="#path7_fill" transform="translate(163.073 5032.01)" fill="#BDC3C7"/>
</g>
</g>
<g id="Group">
<g id="Vector">
<use xlink:href="#path8_fill" transform="translate(125.148 5259.56)" fill="#633C21"/>
</g>
<g id="Vector">
<use xlink:href="#path9_fill" transform="translate(87.222 5079.41)" fill="#633C21"/>
</g>
</g>
<g id="Group">
<g id="Vector">
<use xlink:href="#path10_fill" transform="translate(96.704 5193.19)" fill="#805333"/>
</g>
<g id="Vector">
<use xlink:href="#path11_fill" transform="translate(77.741 5335.41)" fill="#805333"/>
</g>
</g>
</g>
</g>
<g id="grasshopper">
<g id="Group">
<g id="Group">
<g id="Vector">
<use xlink:href="#path12_fill" transform="translate(402 5245.33)" fill="#13A085"/>
</g>
<g id="Vector">
<use xlink:href="#path13_fill" transform="translate(504.401 5475.73)" fill="#13A085"/>
</g>
<g id="Vector">
<use xlink:href="#path14_fill" transform="translate(470.265 5083.2)" fill="#13A085"/>
</g>
<g id="Vector">
<use xlink:href="#path15_fill" transform="translate(478.796 5032)" fill="#13A085"/>
</g>
<g id="Vector">
<use xlink:href="#path16_fill" transform="translate(632.396 5245.33)" fill="#13A085"/>
</g>
<g id="Vector">
<use xlink:href="#path17_fill" transform="translate(606.795 5475.73)" fill="#13A085"/>
</g>
<g id="Vector">
<use xlink:href="#path18_fill" transform="translate(632.397 5083.2)" fill="#13A085"/>
</g>
<g id="Vector">
<use xlink:href="#path19_fill" transform="translate(598.265 5032)" fill="#13A085"/>
</g>
<g id="Vector">
<use xlink:href="#path20_fill" transform="translate(538.535 5296.53)" fill="#13A085"/>
</g>
<g id="Vector">
<use xlink:href="#path21_fill" transform="translate(600.994 5296.53)" fill="#13A085"/>
</g>
</g>
<g id="Vector">
<use xlink:href="#path22_fill" transform="translate(555.599 5117.29)" fill="#4FBA6F"/>
</g>
</g>
</g>
<g id="ant">
<g id="Group">
<g id="Group">
<g id="Vector">
<use xlink:href="#path0_fill" transform="translate(871.961 5269.52)" fill="#472914"/>
</g>
<g id="Vector">
<use xlink:href="#path1_fill" transform="translate(853 5231.6)" fill="#472914"/>
</g>
<g id="Vector">
<use xlink:href="#path2_fill" transform="translate(900.402 5023)" fill="#472914"/>
</g>
<g id="Vector">
<use xlink:href="#path3_fill" transform="translate(1052.11 5269.52)" fill="#472914"/>
</g>
<g id="Vector">
<use xlink:href="#path4_fill" transform="translate(1080.55 5231.6)" fill="#472914"/>
</g>
<g id="Vector">
<use xlink:href="#path5_fill" transform="translate(1080.56 5023)" fill="#472914"/>
</g>
</g>
<g id="Group">
<g id="Vector">
<use xlink:href="#path6_fill" transform="translate(985.74 5023.01)" fill="#BDC3C7"/>
</g>
<g id="Vector">
<use xlink:href="#path7_fill" transform="translate(1071.07 5023.01)" fill="#BDC3C7"/>
</g>
</g>
<g id="Group">
<g id="Vector">
<use xlink:href="#path8_fill" transform="translate(1033.15 5250.56)" fill="#633C21"/>
</g>
<g id="Vector">
<use xlink:href="#path9_fill" transform="translate(995.222 5070.41)" fill="#633C21"/>
</g>
</g>
<g id="Group">
<g id="Vector">
<use xlink:href="#path10_fill" transform="translate(1004.7 5184.19)" fill="#805333"/>
</g>
<g id="Vector">
<use xlink:href="#path11_fill" transform="translate(985.741 5326.41)" fill="#805333"/>
</g>
</g>
</g>
</g>
<g id="ant">
<g id="Group">
<g id="Group">
<g id="Vector">
<use xlink:href="#path0_fill" transform="translate(-944.039 5287.52)" fill="#472914"/>
</g>
<g id="Vector">
<use xlink:href="#path1_fill" transform="translate(-963 5249.6)" fill="#472914"/>
</g>
<g id="Vector">
<use xlink:href="#path2_fill" transform="translate(-915.598 5041)" fill="#472914"/>
</g>
<g id="Vector">
<use xlink:href="#path3_fill" transform="translate(-763.894 5287.52)" fill="#472914"/>
</g>
<g id="Vector">
<use xlink:href="#path4_fill" transform="translate(-735.445 5249.6)" fill="#472914"/>
</g>
<g id="Vector">
<use xlink:href="#path5_fill" transform="translate(-735.443 5041)" fill="#472914"/>
</g>
</g>
<g id="Group">
<g id="Vector">
<use xlink:href="#path6_fill" transform="translate(-830.26 5041.01)" fill="#BDC3C7"/>
</g>
<g id="Vector">
<use xlink:href="#path7_fill" transform="translate(-744.927 5041.01)" fill="#BDC3C7"/>
</g>
</g>
<g id="Group">
<g id="Vector">
<use xlink:href="#path8_fill" transform="translate(-782.852 5268.56)" fill="#633C21"/>
</g>
<g id="Vector">
<use xlink:href="#path9_fill" transform="translate(-820.778 5088.41)" fill="#633C21"/>
</g>
</g>
<g id="Group">
<g id="Vector">
<use xlink:href="#path10_fill" transform="translate(-811.296 5202.19)" fill="#805333"/>
</g>
<g id="Vector">
<use xlink:href="#path11_fill" transform="translate(-830.259 5344.41)" fill="#805333"/>
</g>
</g>
</g>
</g>
<g id="grasshopper">
<g id="Group">
<g id="Group">
<g id="Vector">
<use xlink:href="#path12_fill" transform="translate(-498 5245.33)" fill="#13A085"/>
</g>
<g id="Vector">
<use xlink:href="#path13_fill" transform="translate(-395.599 5475.73)" fill="#13A085"/>
</g>
<g id="Vector">
<use xlink:href="#path14_fill" transform="translate(-429.735 5083.2)" fill="#13A085"/>
</g>
<g id="Vector">
<use xlink:href="#path15_fill" transform="translate(-421.204 5032)" fill="#13A085"/>
</g>
<g id="Vector">
<use xlink:href="#path16_fill" transform="translate(-267.604 5245.33)" fill="#13A085"/>
</g>
<g id="Vector">
<use xlink:href="#path17_fill" transform="translate(-293.205 5475.73)" fill="#13A085"/>
</g>
<g id="Vector">
<use xlink:href="#path18_fill" transform="translate(-267.603 5083.2)" fill="#13A085"/>
</g>
<g id="Vector">
<use xlink:href="#path19_fill" transform="translate(-301.735 5032)" fill="#13A085"/>
</g>
<g id="Vector">
<use xlink:href="#path20_fill" transform="translate(-361.465 5296.53)" fill="#13A085"/>
</g>
<g id="Vector">
<use xlink:href="#path21_fill" transform="translate(-299.006 5296.53)" fill="#13A085"/>
</g>
</g>
<g id="Vector">
<use xlink:href="#path22_fill" transform="translate(-344.401 5117.29)" fill="#4FBA6F"/>
</g>
</g>
</g>
</g>
</g>
<defs>
<path id="path0_fill" d="M 9.48325 265.481C 7.05625 265.481 4.62825 264.552 2.78025 262.703C -0.926747 258.996 -0.926747 253.003 2.78025 249.296L 29.1482 222.928L 57.0613 74.1068C 57.5353 71.5188 59.0622 69.2618 61.2802 67.8488L 165.576 1.47879C 170.013 -1.32821 175.863 -0.0192132 178.67 4.38979C 181.486 8.80779 180.178 14.6678 175.759 17.4838L 74.9332 81.6448L 47.2383 229.3C 46.8873 231.177 45.9863 232.903 44.6313 234.259L 16.1873 262.703C 14.3383 264.552 11.9102 265.481 9.48325 265.481Z"/>
<path id="path1_fill" d="M 47.407 47.407L 9.481 47.407C 4.238 47.407 -1.70898e-06 43.159 -1.70898e-06 37.926C -1.70898e-06 32.692 4.238 28.445 9.481 28.445L 44.781 28.445L 89.932 1.35599C 91.411 0.464995 93.089 7.20215e-06 94.815 7.20215e-06L 161.185 7.20215e-06C 166.428 7.20215e-06 170.666 4.248 170.666 9.481C 170.666 14.714 166.428 18.962 161.185 18.962L 97.441 18.962L 52.29 46.051C 50.811 46.943 49.133 47.407 47.407 47.407Z"/>
<path id="path2_fill" d="M 113.792 189.635C 113.176 189.635 112.55 189.578 111.924 189.445L 64.5174 179.964C 62.0524 179.48 59.8814 178.02 58.4874 175.934L 20.5614 119.045C 19.5284 117.49 18.9684 115.651 18.9684 113.783L 18.9684 40.8044L 1.59839 14.7494C -1.31261 10.3884 -0.136614 4.50039 4.22439 1.59839C 8.58539 -1.31261 14.4644 -0.136611 17.3754 4.22439L 36.3384 32.6684C 37.3714 34.2234 37.9314 36.0624 37.9314 37.9304L 37.9314 110.909L 72.0934 162.147L 115.641 170.86C 120.77 171.884 124.108 176.881 123.074 182.01C 122.183 186.516 118.22 189.635 113.792 189.635Z"/>
<path id="path3_fill" d="M 170.671 265.48C 168.244 265.48 165.816 264.551 163.968 262.702L 135.524 234.258C 134.168 232.902 133.267 231.176 132.917 229.299L 105.222 81.6443L 4.39599 17.4833C -0.022006 14.6673 -1.33102 8.80734 1.48498 4.38934C 4.30098 -0.0196562 10.161 -1.32765 14.579 1.47835L 118.875 67.8483C 121.094 69.2613 122.62 71.5174 123.094 74.1064L 151.007 222.927L 177.375 249.295C 181.082 253.002 181.082 258.995 177.375 262.702C 175.526 264.551 173.099 265.48 170.671 265.48Z"/>
<path id="path4_fill" d="M 161.185 47.407L 123.259 47.407C 121.533 47.407 119.855 46.942 118.376 46.051L 73.225 18.962L 9.48101 18.962C 4.23801 18.962 -9.0332e-06 14.714 -9.0332e-06 9.481C -9.0332e-06 4.248 4.23801 7.20215e-06 9.48101 7.20215e-06L 75.851 7.20215e-06C 77.577 7.20215e-06 79.255 0.464995 80.734 1.35599L 125.885 28.445L 161.185 28.445C 166.428 28.445 170.666 32.693 170.666 37.926C 170.667 43.16 166.429 47.407 161.185 47.407Z"/>
<path id="path5_fill" d="M 9.46964 189.634C 5.04164 189.634 1.07863 186.515 0.187626 182.011C -0.845374 176.882 2.49165 171.885 7.62165 170.861L 51.1696 162.148L 85.3316 110.91L 85.3316 37.9304C 85.3316 36.0624 85.8906 34.2234 86.9246 32.6684L 105.888 4.22439C 108.789 -0.136611 114.658 -1.31261 119.039 1.59839C 123.4 4.49939 124.576 10.3874 121.665 14.7494L 104.295 40.8044L 104.295 113.783C 104.295 115.651 103.736 117.49 102.702 119.045L 64.7756 175.934C 63.3816 178.02 61.2106 179.48 58.7456 179.964L 11.3386 189.445C 10.7116 189.577 10.0766 189.634 9.46964 189.634Z"/>
<path id="path6_fill" d="M 37.926 75.852C 17.01 75.852 3.78418e-06 58.842 3.78418e-06 37.926C 3.78418e-06 17.01 17.01 -4.76837e-09 37.926 -4.76837e-09C 43.169 -4.76837e-09 47.407 4.248 47.407 9.481C 47.407 14.714 43.169 18.962 37.926 18.962C 27.468 18.962 18.963 27.467 18.963 37.925C 18.963 48.383 27.468 56.888 37.926 56.888C 43.169 56.888 47.407 61.136 47.407 66.369C 47.408 71.605 43.17 75.852 37.926 75.852Z"/>
<path id="path7_fill" d="M 9.48199 75.85C 4.23899 75.85 -3.66211e-06 71.602 -3.66211e-06 66.369C -3.66211e-06 61.135 4.23799 56.888 9.48199 56.888C 19.94 56.888 28.445 48.383 28.445 37.925C 28.445 27.467 19.94 18.962 9.48199 18.962C 4.23899 18.962 -3.66211e-06 14.714 -3.66211e-06 9.481C -3.66211e-06 4.248 4.23799 -3.05176e-08 9.48199 -3.05176e-08C 30.398 -3.05176e-08 47.408 17.01 47.408 37.926C 47.408 58.842 30.398 75.85 9.48199 75.85Z"/>
<path id="path8_fill" d="M -6.71387e-06 94.815L 37.926 94.815L 37.926 4.63867e-06L -6.71387e-06 4.63867e-06L -6.71387e-06 94.815Z"/>
<path id="path9_fill" d="M 67.167 113.778L 46.611 113.778C 20.869 113.778 -1.58691e-06 92.909 -1.58691e-06 67.158L -1.58691e-06 46.62C -1.58691e-06 20.868 20.869 -1.80054e-06 46.611 -1.80054e-06L 67.167 -1.80054e-06C 92.909 -1.80054e-06 113.778 20.869 113.778 46.62L 113.778 67.157C 113.778 92.909 92.909 113.778 67.167 113.778Z"/>
<path id="path10_fill" d="M 94.814 37.926C 94.814 58.871 73.594 75.852 47.407 75.852C 21.22 75.852 -6.95801e-06 58.871 -6.95801e-06 37.926C -6.95801e-06 16.981 21.22 -5.7373e-06 47.407 -5.7373e-06C 73.594 -5.7373e-06 94.814 16.981 94.814 37.926Z"/>
<path id="path11_fill" d="M 66.37 170.666C 29.715 170.666 -4.39453e-06 140.951 -4.39453e-06 104.296L -4.39453e-06 66.37C -4.39453e-06 29.715 29.715 -5.61523e-06 66.37 -5.61523e-06C 103.025 -5.61523e-06 132.74 29.715 132.74 66.37L 132.74 104.296C 132.74 140.952 103.025 170.666 66.37 170.666Z"/>
<path id="path12_fill" d="M 85.3319 85.3358C 83.5399 85.3358 81.7389 84.7728 80.2119 83.6288L 78.5819 82.3997C 59.8599 68.3707 35.9579 62.9528 13.0369 67.5348L 10.2039 68.0977C 5.51894 69.0197 1.08194 66.0237 0.16894 61.4077C -0.76106 56.7907 2.24294 52.2937 6.85894 51.3727L 9.69194 50.8007C 35.6159 45.6207 62.5469 51.0227 84.4269 65.6407L 147.565 2.50274C 150.902 -0.834256 156.295 -0.834256 159.631 2.50274C 162.968 5.83974 162.968 11.2328 159.631 14.5688L 91.3639 82.8358C 89.7179 84.4908 87.5249 85.3358 85.3319 85.3358Z"/>
<path id="path13_fill" d="M 8.54006 68.2652C 8.07106 68.2652 7.61007 68.2311 7.13207 68.1461C 2.48107 67.3781 -0.658941 62.9752 0.118059 58.3242L 8.65106 7.12414C 9.05206 4.73514 10.4521 2.61816 12.5081 1.32116C 14.5561 0.024164 17.0821 -0.342857 19.4031 0.331143L 79.1361 17.3982C 83.6761 18.6872 86.2951 23.4142 85.0071 27.9452C 83.7101 32.4852 78.9571 35.1042 74.4601 33.7992L 23.9171 19.3611L 16.9451 61.1402C 16.2541 65.3042 12.6361 68.2652 8.54006 68.2652Z"/>
<path id="path14_fill" d="M 85.3253 119.47C 84.1643 119.47 82.9953 119.231 81.8693 118.728L 5.06932 84.595C 2.33832 83.383 0.452316 80.849 0.0683161 77.888C -0.306684 74.935 0.87932 72 3.20032 70.14L 38.4263 41.963L 11.0343 14.571C 7.69732 11.234 7.69732 5.833 11.0343 2.496C 14.3713 -0.832 19.7643 -0.832 23.1003 2.496L 57.2333 36.629C 58.9483 38.353 59.8613 40.716 59.7163 43.14C 59.5793 45.563 58.4273 47.816 56.5333 49.327L 24.8153 74.697L 88.7983 103.139C 93.1073 105.05 95.0443 110.094 93.1333 114.403C 91.7173 117.576 88.6023 119.47 85.3253 119.47Z"/>
<path id="path15_fill" d="M 110.928 93.8598C 106.516 93.8598 102.779 90.4638 102.429 85.9838C 101.439 73.3798 94.399 39.6048 73.97 34.7748L 51.374 29.6288L 6.19896 16.7348C 1.65896 15.4378 -0.960044 10.7188 0.327956 6.18784C 1.62496 1.64784 6.37797 -0.954162 10.875 0.325838L 55.607 13.1088L 77.828 18.1438C 114.649 26.8568 119.274 82.3228 119.445 84.6868C 119.803 89.3798 116.288 93.4758 111.594 93.8348C 111.372 93.8508 111.141 93.8598 110.928 93.8598Z"/>
<path id="path16_fill" d="M 76.8028 85.3358C 74.6098 85.3358 72.4167 84.4908 70.7697 82.8358L 2.50274 14.5688C -0.834261 11.2318 -0.834261 5.83874 2.50274 2.50274C 5.83974 -0.834256 11.2327 -0.834256 14.5687 2.50274L 77.7067 65.6407C 99.5857 51.0227 126.526 45.6127 152.442 50.8007L 155.275 51.3727C 159.892 52.2947 162.895 56.7917 161.965 61.4077C 161.043 66.0327 156.521 69.0027 151.93 68.0977L 149.097 67.5348C 126.159 62.9698 102.275 68.3708 83.5518 82.4088L 81.9217 83.6288C 80.3957 84.7728 78.5948 85.3358 76.8028 85.3358Z"/>
<path id="path17_fill" d="M 76.7953 68.2652C 72.6993 68.2652 69.0813 65.3042 68.3903 61.1402L 61.4183 19.3611L 10.8753 33.7992C 6.39533 35.0882 1.6253 32.4852 0.328303 27.9452C -0.960697 23.4142 1.65931 18.6862 6.19931 17.3982L 65.9323 0.331143C 68.2533 -0.342857 70.7793 0.024164 72.8273 1.32116C 74.8843 2.61816 76.2833 4.73414 76.6843 7.12414L 85.2173 58.3242C 85.9943 62.9752 82.8533 67.3781 78.2033 68.1461C 77.7263 68.2311 77.2653 68.2652 76.7953 68.2652Z"/>
<path id="path18_fill" d="M 8.54418 119.472C 5.26718 119.472 2.15317 117.578 0.736166 114.403C -1.17483 110.094 0.762157 105.05 5.07116 103.139L 69.0542 74.697L 37.3362 49.327C 35.4422 47.817 34.2902 45.564 34.1532 43.14C 34.0082 40.717 34.9212 38.353 36.6362 36.629L 70.7692 2.496C 74.1062 -0.831999 79.4992 -0.831999 82.8352 2.496C 86.1722 5.833 86.1722 11.234 82.8352 14.571L 55.4432 41.964L 90.6692 70.141C 92.9902 72.001 94.1762 74.937 93.8012 77.889C 93.4172 80.85 91.5312 83.384 88.8002 84.596L 12.0002 118.729C 10.8732 119.233 9.70418 119.472 8.54418 119.472Z"/>
<path id="path19_fill" d="M 8.54209 93.8566C 8.32909 93.8566 8.09808 93.8476 7.87608 93.8306C 3.18308 93.4726 -0.332905 89.3766 0.0250953 84.6826C 0.196095 82.3186 4.82108 26.8526 41.5651 18.1566L 64.3151 12.9856L 108.594 0.32258C 113.1 -0.94842 117.844 1.64558 119.141 6.18458C 120.43 10.7156 117.81 15.4346 113.27 16.7316L 68.5491 29.5066L 45.4241 34.7886C 25.0721 39.6016 18.0321 73.3766 17.0421 85.9796C 16.6921 90.4596 12.9541 93.8566 8.54209 93.8566Z"/>
<path id="path20_fill" d="M 31.4062 5.85938e-06C 31.4062 5.85938e-06 18.0772 8.124 8.0762 32.06C -4.4678 62.089 -2.05278 96.333 12.9142 125.235C 25.9872 150.468 44.4532 183.714 57.0062 196.266L 31.4062 5.85938e-06Z"/>
<path id="path21_fill" d="M 48.93 32.06C 38.929 8.12399 25.6 -8.30078e-06 25.6 -8.30078e-06L -1.02539e-05 196.267C 12.544 183.714 31.01 150.469 44.092 125.236C 59.059 96.333 61.474 62.088 48.93 32.06Z"/>
<path id="path22_fill" d="M 42.667 0.0433026C 42.667 0.0433026 7.32422e-07 -5.2897 7.32422e-07 102.443L 7.32422e-07 158.789C 7.32422e-07 185.695 3.328 212.464 10.095 238.499C 17.254 266.036 25.6 307.278 25.6 349.91L 25.6 418.177L 42.667 418.177L 59.734 418.177L 59.734 349.91C 59.734 307.277 68.08 266.036 75.239 238.499C 82.006 212.464 85.334 185.695 85.334 158.789L 85.334 102.443C 85.333 -5.2907 42.667 0.0433026 42.667 0.0433026Z"/>
</defs>
</svg>
