<svg width="2377" height="1440" viewBox="0 0 2377 1440" version="1.1" xmlns="http://www.w3.org/2000/svg" xmlns:xlink="http://www.w3.org/1999/xlink">
<title>Frame</title>
<desc>Created using Figma</desc>
<g id="Canvas" transform="translate(-1886 -868)">
<clipPath id="clip-0" clip-rule="evenodd">
<path d="M 1886 868L 4263 868L 4263 2308L 1886 2308L 1886 868Z" fill="#FFFFFF"/>
</clipPath>
<g id="Frame" clip-path="url(#clip-0)">
<path d="M 1886 868L 4263 868L 4263 2308L 1886 2308L 1886 868Z" fill="#5795E8"/>
<g id="chat">
<g id="Vector">
<use xlink:href="#path0_fill" transform="translate(2889.49 1419.5)" fill="#50B67B"/>
</g>
<g id="Vector">
<use xlink:href="#path1_fill" transform="translate(2721 1251)" fill="#FFFFFF"/>
</g>
<g id="Group">
<g id="Vector">
<use xlink:href="#path2_fill" transform="translate(2825 1419)" fill="#6FCF97"/>
</g>
<g id="Vector">
<use xlink:href="#path3_fill" transform="translate(2951.46 1419)" fill="#6FCF97"/>
</g>
<g id="Vector">
<use xlink:href="#path4_fill" transform="translate(3077.23 1419)" fill="#6FCF97"/>
</g>
</g>
</g>
</g>
</g>
<defs>
<path id="path0_fill" d="M 539.51 84.25L 539.51 314.023C 539.51 359.977 502.067 397.422 456.115 397.422L 456.115 505.5L 324.216 397.422L 83.3942 397.422C 37.4423 397.422 6.49232e-06 359.977 6.49232e-06 314.023L 6.49232e-06 266.366L 45.9519 228.071L 287.625 228.071C 333.577 228.071 371.019 190.626 371.019 144.672L 371.019 6.49269e-06L 456.115 6.49269e-06C 502.067 0.851017 539.51 38.2954 539.51 84.25Z"/>
<path id="path1_fill" d="M 456.115 -3.24635e-06L 83.3942 -3.24635e-06C 37.4423 -3.24635e-06 -3.24616e-06 37.4445 -3.24616e-06 83.399L -3.24616e-06 313.172C -3.24616e-06 359.126 37.4423 396.571 83.3942 396.571L 83.3942 504.649L 215.293 396.571L 456.115 396.571C 502.067 396.571 539.51 359.126 539.51 313.172L 539.51 83.399C 539.51 37.4445 502.067 -3.24635e-06 456.115 -3.24635e-06Z"/>
<path id="path2_fill" d="M 42.3856 85C 65.7945 85 84.7711 65.9721 84.7711 42.5C 84.7711 19.0279 65.7945 1.06311e-05 42.3856 1.06311e-05C 18.9767 1.06311e-05 -5.30125e-06 19.0279 -5.30125e-06 42.5C -5.30125e-06 65.9721 18.9767 85 42.3856 85Z"/>
<path id="path3_fill" d="M 42.3856 85C 65.7945 85 84.7712 65.9721 84.7712 42.5C 84.7712 19.0279 65.7945 1.06311e-05 42.3856 1.06311e-05C 18.9767 1.06311e-05 0 19.0279 0 42.5C 0 65.9721 18.9767 85 42.3856 85Z"/>
<path id="path4_fill" d="M 42.3856 85C 65.7945 85 84.7712 65.9721 84.7712 42.5C 84.7712 19.0279 65.7945 1.06311e-05 42.3856 1.06311e-05C 18.9766 1.06311e-05 -1.06025e-05 19.0279 -1.06025e-05 42.5C -1.06025e-05 65.9721 18.9766 85 42.3856 85Z"/>
</defs>
</svg>
