<svg width="2377" height="1440" viewBox="0 0 2377 1440" version="1.1" xmlns="http://www.w3.org/2000/svg" xmlns:xlink="http://www.w3.org/1999/xlink">
<title>Frame</title>
<desc>Created using Figma</desc>
<g id="Canvas" transform="translate(-1886 -2593)">
<clipPath id="clip-0" clip-rule="evenodd">
<path d="M 1886 2593L 4263 2593L 4263 4033L 1886 4033L 1886 2593Z" fill="#FFFFFF"/>
</clipPath>
<g id="Frame" clip-path="url(#clip-0)">
<path d="M 1886 2593L 4263 2593L 4263 4033L 1886 4033L 1886 2593Z" fill="#4B4D5F"/>
<g id="races">
<g id="Vector">
<use xlink:href="#path0_fill" transform="translate(2721 3008)" fill="#5B5D6E"/>
</g>
<g id="Vector">
<use xlink:href="#path1_fill" transform="translate(2916.31 3203.2)" fill="#7C5E6C"/>
</g>
<g id="Vector">
<use xlink:href="#path2_fill" transform="translate(2721 3008)" fill="#464655"/>
</g>
<g id="Vector">
<use xlink:href="#path3_fill" transform="translate(3020.07 3209.3)" fill="#FF6464"/>
</g>
<g id="Vector">
<use xlink:href="#path4_fill" transform="translate(3038.38 3325.2)" fill="#464655"/>
</g>
<g id="Group">
<g id="Vector">
<use xlink:href="#path5_fill" transform="translate(2769.83 3349.6)" fill="#FFFFFF"/>
</g>
<g id="Vector">
<use xlink:href="#path6_fill" transform="translate(3319.14 3349.6)" fill="#FFFFFF"/>
</g>
<g id="Vector">
<use xlink:href="#path7_fill" transform="translate(3062.79 3056.8)" fill="#FFFFFF"/>
</g>
<g id="Vector">
<use xlink:href="#path8_fill" transform="translate(2855.63 3142.56)" fill="#FFFFFF"/>
</g>
<g id="Vector">
<use xlink:href="#path9_fill" transform="translate(3244.06 3142.56)" fill="#FFFFFF"/>
</g>
<g id="Vector">
<use xlink:href="#path10_fill" transform="translate(2792.13 3447.65)" fill="#FFFFFF"/>
</g>
<g id="Vector">
<use xlink:href="#path11_fill" transform="translate(3299.62 3237.55)" fill="#FFFFFF"/>
</g>
<g id="Vector">
<use xlink:href="#path12_fill" transform="translate(2950.68 3079.09)" fill="#FFFFFF"/>
</g>
<g id="Vector">
<use xlink:href="#path13_fill" transform="translate(2792.13 3237.55)" fill="#FFFFFF"/>
</g>
<g id="Vector">
<use xlink:href="#path14_fill" transform="translate(3299.62 3447.65)" fill="#FFFFFF"/>
</g>
<g id="Vector">
<use xlink:href="#path15_fill" transform="translate(3160.89 3079.1)" fill="#FFFFFF"/>
</g>
</g>
<g id="Group">
<g id="Vector">
<use xlink:href="#path16_fill" transform="translate(2769.83 3056.8)" fill="#2D9CDB"/>
</g>
<g id="Vector">
<use xlink:href="#path17_fill" transform="translate(2977.34 3483.8)" fill="#FF6464"/>
</g>
</g>
<g id="Group">
<g id="Vector">
<use xlink:href="#path18_fill" transform="translate(3013.97 3496)" fill="#464655"/>
</g>
<g id="Vector">
<use xlink:href="#path19_fill" transform="translate(3062.79 3496)" fill="#464655"/>
</g>
<g id="Vector">
<use xlink:href="#path20_fill" transform="translate(3111.62 3496)" fill="#464655"/>
</g>
</g>
</g>
</g>
</g>
<defs>
<path id="path0_fill" d="M 593.108 610L 114.892 610C 111.697 610 108.634 608.749 106.344 606.521C 37.7646 539.374 0 449.625 0 353.799C 0 158.719 158.809 1.89793e-06 354 1.89793e-06C 549.191 1.89793e-06 708 158.719 708 353.799C 708 449.624 670.235 539.373 601.655 606.52C 599.366 608.749 596.302 610 593.108 610Z"/>
<path id="path1_fill" d="M 158.69 317.201C 246.332 317.201 317.38 246.193 317.38 158.6C 317.38 71.0078 246.332 -7.0856e-06 158.69 -7.0856e-06C 71.048 -7.0856e-06 -3.71361e-06 71.0078 -3.71361e-06 158.6C -3.71361e-06 246.193 71.048 317.201 158.69 317.201Z"/>
<path id="path2_fill" d="M 593.108 610L 114.892 610C 111.697 610 108.634 608.749 106.344 606.521C 37.7646 539.374 0 449.625 0 353.799C 0 158.719 158.809 1.89793e-06 354 1.89793e-06C 549.191 1.89793e-06 708 158.719 708 353.799C 708 449.624 670.235 539.373 601.655 606.52C 599.366 608.749 596.302 610 593.108 610ZM 119.923 585.599L 588.077 585.599C 649.706 523.491 683.585 441.368 683.585 353.799C 683.585 172.169 535.732 24.3997 353.999 24.3997C 172.265 24.3997 24.4136 172.169 24.4136 353.799C 24.4136 441.369 58.2925 523.491 119.923 585.599Z"/>
<path id="path3_fill" d="M 12.2061 207.4C 9.08231 207.4 5.95854 206.208 3.57595 203.826C -1.19199 199.061 -1.19199 191.339 3.57595 186.574L 186.68 3.57392C 191.448 -1.19132 199.173 -1.19132 203.941 3.57392C 208.709 8.33916 208.709 16.0606 203.941 20.8258L 20.839 203.826C 18.4536 206.21 15.3299 207.4 12.2061 207.4Z"/>
<path id="path4_fill" d="M 36.621 73.2006C 56.8463 73.2006 73.2421 56.814 73.2421 36.6003C 73.2421 16.3865 56.8463 -5.73596e-06 36.621 -5.73596e-06C 16.3958 -5.73596e-06 -2.3632e-06 16.3865 -2.3632e-06 36.6003C -2.3632e-06 56.814 16.3958 73.2006 36.621 73.2006Z"/>
<path id="path5_fill" d="M 48.8285 24.4011L 12.2075 24.4011C 5.46073 24.4011 1.899e-06 18.9449 1.899e-06 12.2005C 1.899e-06 5.45763 5.45934 -7.42301e-06 12.2075 -7.42301e-06L 48.8285 -7.42301e-06C 55.5752 -7.42301e-06 61.036 5.45625 61.036 12.2005C 61.0346 18.9449 55.5752 24.4011 48.8285 24.4011Z"/>
<path id="path6_fill" d="M 48.8285 24.4011L 12.2075 24.4011C 5.46072 24.4011 -7.08961e-06 18.9449 -7.08961e-06 12.2005C -7.08961e-06 5.45763 5.45934 -7.42301e-06 12.2075 -7.42301e-06L 48.8285 -7.42301e-06C 55.5752 -7.42301e-06 61.036 5.45625 61.036 12.2005C 61.036 18.9449 55.5766 24.4011 48.8285 24.4011Z"/>
<path id="path7_fill" d="M 12.2075 61.0014C 5.46073 61.0014 -4.05121e-06 55.5451 -4.05121e-06 48.8008L -4.05121e-06 12.2006C -4.05121e-06 5.45763 5.45934 3.79586e-06 12.2075 3.79586e-06C 18.9542 3.79586e-06 24.4149 5.45625 24.4149 12.2006L 24.4149 48.8008C 24.4149 55.5437 18.9542 61.0014 12.2075 61.0014Z"/>
<path id="path8_fill" d="M 38.0979 50.2768C 34.9741 50.2768 31.8503 49.0855 29.4677 46.7029L 3.57595 20.8258C -1.19199 16.0606 -1.19199 8.33917 3.57595 3.57393C 8.34389 -1.19131 16.0697 -1.19131 20.8376 3.57393L 46.7294 29.451C 51.4973 34.2163 51.4973 41.9377 46.7294 46.7029C 44.344 49.0855 41.2203 50.2768 38.0979 50.2768Z"/>
<path id="path9_fill" d="M 12.2061 50.2768C 9.08231 50.2768 5.95854 49.0855 3.57595 46.7029C -1.19198 41.9377 -1.19198 34.2163 3.57595 29.451L 29.4677 3.57393C 34.2357 -1.19131 41.9615 -1.19131 46.7294 3.57393C 51.4973 8.33917 51.4973 16.0606 46.7294 20.8258L 20.8376 46.7029C 18.4536 49.0855 15.3299 50.2768 12.2061 50.2768Z"/>
<path id="path10_fill" d="M 12.2085 38.4014C 7.42816 38.4014 2.87456 35.5668 0.930325 30.8707C -1.64585 24.6516 1.31198 17.5023 7.53464 14.9304L 41.3665 0.91938C 47.5532 -1.63046 54.7425 1.30082 57.3159 7.51995C 59.8907 13.7391 56.9342 20.8883 50.7116 23.4603L 16.8797 37.4713C 15.3558 38.1029 13.7711 38.4014 12.2085 38.4014Z"/>
<path id="path11_fill" d="M 12.2085 38.4083C 7.42816 38.4083 2.87455 35.5737 0.930315 30.8776C -1.64586 24.6585 1.31197 17.5092 7.53463 14.9373L 41.3665 0.926273C 47.5657 -1.63601 54.7425 1.29528 57.3159 7.52685C 59.8921 13.746 56.9342 20.8952 50.7116 23.4672L 16.8797 37.4782C 15.3558 38.1111 13.7697 38.4083 12.2085 38.4083Z"/>
<path id="path12_fill" d="M 26.2275 58.21C 21.4471 58.21 16.8935 55.3755 14.9493 50.6793L 0.930334 16.8666C -1.64585 10.6475 1.31199 3.49823 7.53465 0.926275C 13.7449 -1.63601 20.9106 1.29528 23.484 7.52685L 37.503 41.3396C 40.0791 47.5587 37.1213 54.7079 30.8986 57.2799C 29.3748 57.9115 27.7887 58.21 26.2275 58.21Z"/>
<path id="path13_fill" d="M 46.0399 38.4069C 44.4787 38.4069 42.8926 38.1098 41.3659 37.4782L 7.53406 23.4672C 1.3114 20.8925 -1.64505 13.746 0.929746 7.52686C 3.50593 1.29529 10.6813 -1.636 16.8791 0.926283L 50.711 14.9373C 56.9337 17.512 59.8901 24.6585 57.3153 30.8776C 55.3725 35.5724 50.8202 38.4069 46.0399 38.4069Z"/>
<path id="path14_fill" d="M 46.0399 38.4017C 44.4787 38.4017 42.8926 38.1046 41.3659 37.473L 7.53405 23.462C 1.31139 20.8872 -1.64506 13.7408 0.929735 7.52165C 3.50592 1.29008 10.6813 -1.62877 16.8791 0.921078L 50.711 14.9321C 56.9336 17.5068 59.8901 24.6533 57.3153 30.8724C 55.3738 35.5658 50.8202 38.4017 46.0399 38.4017Z"/>
<path id="path15_fill" d="M 12.208 58.2086C 10.6468 58.2086 9.06068 57.9115 7.53406 57.2799C 1.3114 54.7052 -1.64506 47.5587 0.929741 41.3396L 14.9487 7.52685C 17.5346 1.29528 24.7113 -1.63601 30.8981 0.926274C 37.1207 3.50099 40.0772 10.6475 37.5024 16.8666L 23.4834 50.6793C 21.5406 55.3727 16.9884 58.2086 12.208 58.2086Z"/>
<path id="path16_fill" d="M 523.477 512.4C 520.569 512.4 517.66 511.374 515.335 509.29C 510.317 504.799 509.889 497.079 514.381 492.062C 560.516 440.558 585.931 374.125 585.931 305C 585.931 150.272 459.987 24.4011 305.173 24.4011C 150.359 24.4011 24.4149 150.272 24.4149 305C 24.4149 374.125 49.8297 440.559 95.9644 492.062C 100.459 497.077 100.03 504.799 95.0103 509.29C 90.0156 513.782 82.2663 513.364 77.7721 508.337C 27.6217 452.353 1.899e-06 380.142 1.899e-06 305C 1.899e-06 136.822 136.898 3.79586e-06 305.173 3.79586e-06C 473.447 3.79586e-06 610.346 136.821 610.346 305C 610.346 380.141 582.724 452.353 532.574 508.337C 530.166 511.03 526.829 512.4 523.477 512.4Z"/>
<path id="path17_fill" d="M 183.104 73.2006L 12.2075 73.2006C 5.46626 73.2006 -3.03841e-06 67.7374 -3.03841e-06 61L -3.03841e-06 12.2006C -3.03841e-06 5.46316 5.46626 -2.02446e-06 12.2075 -2.02446e-06L 183.104 -2.02446e-06C 189.845 -2.02446e-06 195.311 5.46316 195.311 12.2006L 195.311 61C 195.311 67.7374 189.845 73.2006 183.104 73.2006Z"/>
<path id="path18_fill" d="M 12.2075 48.8008C 5.46626 48.8008 -6.75201e-07 43.3377 -6.75201e-07 36.6003L -6.75201e-07 12.2005C -6.75201e-07 5.46316 5.46626 -7.76042e-06 12.2075 -7.76042e-06C 18.9487 -7.76042e-06 24.4149 5.46316 24.4149 12.2005L 24.4149 36.6003C 24.4136 43.339 18.9487 48.8008 12.2075 48.8008Z"/>
<path id="path19_fill" d="M 12.2075 48.8008C 5.46626 48.8008 -4.05121e-06 43.3377 -4.05121e-06 36.6003L -4.05121e-06 12.2005C -4.05121e-06 5.46316 5.46626 -7.76042e-06 12.2075 -7.76042e-06C 18.9487 -7.76042e-06 24.4149 5.46316 24.4149 12.2005L 24.4149 36.6003C 24.4149 43.339 18.9487 48.8008 12.2075 48.8008Z"/>
<path id="path20_fill" d="M 12.2075 48.8008C 5.46625 48.8008 -7.42722e-06 43.3377 -7.42722e-06 36.6003L -7.42722e-06 12.2005C -7.42722e-06 5.46316 5.46625 -7.76042e-06 12.2075 -7.76042e-06C 18.9487 -7.76042e-06 24.4149 5.46316 24.4149 12.2005L 24.4149 36.6003C 24.4149 43.339 18.9487 48.8008 12.2075 48.8008Z"/>
</defs>
</svg>
