<?xml version="1.0" encoding="iso-8859-1"?>
<!-- Generator: Adobe Illustrator 19.0.0, SVG Export Plug-In . SVG Version: 6.00 Build 0)  -->
<svg version="1.1" id="Layer_1" xmlns="http://www.w3.org/2000/svg" xmlns:xlink="http://www.w3.org/1999/xlink" x="0px" y="0px"
	 viewBox="0 0 511.997 511.997" style="enable-background:new 0 0 511.997 511.997;" xml:space="preserve">
<g>
	<g>
		<path style="fill:#13A085;" d="M145.065,298.664c-1.792,0-3.593-0.563-5.12-1.707l-1.63-1.229
			c-18.722-14.029-42.624-19.447-65.545-14.865l-2.833,0.563c-4.685,0.922-9.122-2.074-10.035-6.69
			c-0.93-4.617,2.074-9.114,6.69-10.035l2.833-0.572c25.924-5.18,52.855,0.222,74.735,14.84l63.138-63.138
			c3.337-3.337,8.73-3.337,12.066,0c3.337,3.337,3.337,8.73,0,12.066l-68.267,68.267
			C149.451,297.819,147.258,298.664,145.065,298.664"/>
		<path style="fill:#13A085;" d="M170.674,511.997c-0.469,0-0.93-0.034-1.408-0.119c-4.651-0.768-7.791-5.171-7.014-9.822
			l8.533-51.2c0.401-2.389,1.801-4.506,3.857-5.803c2.048-1.297,4.574-1.664,6.895-0.99l59.733,17.067
			c4.54,1.289,7.159,6.016,5.871,10.547c-1.297,4.54-6.05,7.159-10.547,5.854l-50.543-14.438l-6.972,41.779
			C178.388,509.036,174.77,511.997,170.674,511.997"/>
		<path style="fill:#13A085;" d="M213.323,170.668c-1.161,0-2.33-0.239-3.456-0.742l-76.8-34.133
			c-2.731-1.212-4.617-3.746-5.001-6.707c-0.375-2.953,0.811-5.888,3.132-7.748l35.226-28.177l-27.392-27.392
			c-3.337-3.337-3.337-8.738,0-12.075c3.337-3.328,8.73-3.328,12.066,0l34.133,34.133c1.715,1.724,2.628,4.087,2.483,6.511
			c-0.137,2.423-1.289,4.676-3.183,6.187l-31.718,25.37l63.983,28.442c4.309,1.911,6.246,6.955,4.335,11.264
			C219.715,168.774,216.6,170.668,213.323,170.668"/>
		<path style="fill:#13A085;" d="M247.457,93.86c-4.412,0-8.149-3.396-8.499-7.876c-0.99-12.604-8.03-46.379-28.459-51.209
			l-22.596-5.146l-45.175-12.894c-4.54-1.297-7.159-6.016-5.871-10.547c1.297-4.54,6.05-7.142,10.547-5.862l44.732,12.783
			l22.221,5.035c36.821,8.713,41.446,64.179,41.617,66.543c0.358,4.693-3.157,8.789-7.851,9.148
			C247.901,93.851,247.67,93.86,247.457,93.86"/>
		<path style="fill:#13A085;" d="M366.932,298.664c-2.193,0-4.386-0.845-6.033-2.5l-68.267-68.267c-3.337-3.337-3.337-8.73,0-12.066
			c3.337-3.337,8.73-3.337,12.066,0l63.138,63.138c21.879-14.618,48.819-20.028,74.735-14.84l2.833,0.572
			c4.617,0.922,7.62,5.419,6.69,10.035c-0.922,4.625-5.444,7.595-10.035,6.69l-2.833-0.563
			c-22.938-4.565-46.822,0.836-65.545,14.874l-1.63,1.22C370.525,298.101,368.724,298.664,366.932,298.664"/>
		<path style="fill:#13A085;" d="M341.323,511.997c-4.096,0-7.714-2.961-8.405-7.125l-6.972-41.779l-50.543,14.438
			c-4.48,1.289-9.25-1.314-10.547-5.854c-1.289-4.531,1.331-9.259,5.871-10.547l59.733-17.067c2.321-0.674,4.847-0.307,6.895,0.99
			c2.057,1.297,3.456,3.413,3.857,5.803l8.533,51.2c0.777,4.651-2.364,9.054-7.014,9.822
			C342.254,511.963,341.793,511.997,341.323,511.997"/>
		<path style="fill:#13A085;" d="M298.674,170.668c-3.277,0-6.391-1.894-7.808-5.069c-1.911-4.309,0.026-9.353,4.335-11.264
			l63.983-28.442l-31.718-25.37c-1.894-1.51-3.046-3.763-3.183-6.187c-0.145-2.423,0.768-4.787,2.483-6.511l34.133-34.133
			c3.337-3.328,8.73-3.328,12.066,0c3.337,3.337,3.337,8.738,0,12.075L345.573,93.16l35.226,28.177
			c2.321,1.86,3.507,4.796,3.132,7.748c-0.384,2.961-2.27,5.495-5.001,6.707l-76.8,34.133
			C301.003,170.429,299.834,170.668,298.674,170.668"/>
		<path style="fill:#13A085;" d="M264.54,93.86c-0.213,0-0.444-0.009-0.666-0.026c-4.693-0.358-8.209-4.454-7.851-9.148
			c0.171-2.364,4.796-57.83,41.54-66.526l22.75-5.171l44.279-12.663c4.506-1.271,9.25,1.323,10.547,5.862
			c1.289,4.531-1.331,9.25-5.871,10.547L324.547,29.51l-23.125,5.282C281.07,39.605,274.03,73.38,273.04,85.983
			C272.69,90.463,268.952,93.86,264.54,93.86"/>
		<path style="fill:#13A085;" d="M227.674,264.531c0,0-13.329,8.124-23.33,32.06c-12.544,30.029-10.129,64.273,4.838,93.175
			c13.073,25.233,31.539,58.479,44.092,71.031L227.674,264.531z"/>
		<path style="fill:#13A085;" d="M307.657,296.589c-10.001-23.936-23.33-32.06-23.33-32.06l-25.6,196.267
			c12.544-12.553,31.01-45.798,44.092-71.031C317.786,360.862,320.201,326.617,307.657,296.589"/>
	</g>
	<path style="fill:#4FBA6F;" d="M255.999,85.331c0,0-42.667-5.333-42.667,102.4v56.346c0,26.906,3.328,53.675,10.095,79.71
		c7.159,27.537,15.505,68.779,15.505,111.411v68.267h17.067h17.067v-68.267c0-42.633,8.346-83.874,15.505-111.411
		c6.767-26.035,10.095-52.804,10.095-79.71v-56.346C298.665,79.997,255.999,85.331,255.999,85.331"/>
</g>
<g>
</g>
<g>
</g>
<g>
</g>
<g>
</g>
<g>
</g>
<g>
</g>
<g>
</g>
<g>
</g>
<g>
</g>
<g>
</g>
<g>
</g>
<g>
</g>
<g>
</g>
<g>
</g>
<g>
</g>
</svg>
