<?xml version="1.0" encoding="iso-8859-1"?>
<!-- Generator: Adobe Illustrator 19.0.0, SVG Export Plug-In . SVG Version: 6.00 Build 0)  -->
<svg version="1.1" id="Capa_1" xmlns="http://www.w3.org/2000/svg" xmlns:xlink="http://www.w3.org/1999/xlink" x="0px" y="0px"
	 viewBox="0 0 512 512" style="enable-background:new 0 0 512 512;" xml:space="preserve">
<path style="fill:#775146;" d="M256,372.615L256,372.615c-56.054,0-101.495-45.441-101.495-101.495V101.495
	C154.505,45.441,199.946,0,256,0l0,0c56.054,0,101.495,45.441,101.495,101.495V271.12C357.495,327.174,312.054,372.615,256,372.615z
	"/>
<path style="fill:#634038;" d="M256,0L256,0c-6.517,0-12.888,0.622-19.064,1.795c46.94,8.922,82.431,50.162,82.431,99.699V271.12
	c0,49.537-35.491,90.778-82.431,99.699c6.175,1.174,12.546,1.795,19.063,1.795l0,0c56.054,0,101.495-45.441,101.495-101.495V101.495
	C357.495,45.441,312.054,0,256,0z"/>
<path style="fill:#AF8A83;" d="M418.096,271.12v-31.802c0-5.52-4.475-9.996-9.996-9.996h-12.526c-5.52,0-9.996,4.475-9.996,9.996
	v30.376c0,71.503-57.32,130.591-128.821,131.002c-71.796,0.412-130.336-57.874-130.336-129.576v-31.802
	c0-5.52-4.475-9.996-9.996-9.996H103.9c-5.52,0-9.996,4.475-9.996,9.996v30.233c0,83.958,63.253,154.044,144.936,162.745
	c0.885,0.094,1.558,0.833,1.558,1.723v38.073H166.33c-19.084,0-35.039,13.395-38.977,31.296c-0.972,4.418,2.367,8.612,6.891,8.612
	h243.512c4.524,0,7.862-4.194,6.891-8.612c-3.937-17.901-19.893-31.296-38.977-31.296h-74.068v-38.06c0-0.891,0.674-1.63,1.56-1.723
	C354.504,423.709,418.096,354.704,418.096,271.12z"/>
<path style="fill:#FFB124;" d="M256,0L256,0c-56.054,0-101.495,45.441-101.495,101.495v99.069h202.99v-99.069
	C357.495,45.441,312.054,0,256,0z"/>
<path style="fill:#927167;" d="M346.162,472.102L346.097,512h31.659c4.524,0,7.862-4.194,6.891-8.612
	C380.744,485.642,365.027,472.331,346.162,472.102z"/>
<g>
	<path style="fill:#FF901E;" d="M267.783,200.564h21.034V5.426c-6.721-2.295-13.761-3.9-21.034-4.741V200.564z"/>
	<path style="fill:#FF901E;" d="M312.382,17.094v183.47h21.034V35.867C327.317,28.68,320.24,22.353,312.382,17.094z"/>
	<path style="fill:#FF901E;" d="M223.183,200.564h21.034V0.685c-7.273,0.841-14.313,2.446-21.034,4.741V200.564z"/>
	<path style="fill:#FF901E;" d="M178.584,35.867v164.696h21.034V17.094C191.761,22.353,184.683,28.68,178.584,35.867z"/>
</g>
<path style="fill:#FF4C4C;" d="M360.951,229.322h-209.9c-4.27,0-7.731-3.461-7.731-7.731v-18.145c0-4.27,3.461-7.731,7.731-7.731
	h209.9c4.27,0,7.731,3.461,7.731,7.731v18.145C368.681,225.861,365.22,229.322,360.951,229.322z"/>
<g>
</g>
<g>
</g>
<g>
</g>
<g>
</g>
<g>
</g>
<g>
</g>
<g>
</g>
<g>
</g>
<g>
</g>
<g>
</g>
<g>
</g>
<g>
</g>
<g>
</g>
<g>
</g>
<g>
</g>
</svg>
