<svg width="2377" height="1440" viewBox="0 0 2377 1440" version="1.1" xmlns="http://www.w3.org/2000/svg" xmlns:xlink="http://www.w3.org/1999/xlink">
<title>Frame</title>
<desc>Created using Figma</desc>
<g id="Canvas" transform="translate(-1886 -4568)">
<clipPath id="clip-0" clip-rule="evenodd">
<path d="M 1886 4568L 4263 4568L 4263 6008L 1886 6008L 1886 4568Z" fill="#FFFFFF"/>
</clipPath>
<g id="Frame" clip-path="url(#clip-0)">
<path d="M 1886 4568L 4263 4568L 4263 6008L 1886 6008L 1886 4568Z" fill="#FDD969"/>
<g id="microphone">
<g id="Vector">
<use xlink:href="#path0_fill" transform="translate(2947.08 4967)" fill="#775146"/>
</g>
<g id="Vector">
<use xlink:href="#path1_fill" transform="translate(3050.57 4967)" fill="#634038"/>
</g>
<g id="Vector">
<use xlink:href="#path2_fill" transform="translate(2871 5254.55)" fill="#AF8A83"/>
</g>
<g id="Vector">
<use xlink:href="#path3_fill" transform="translate(2947.08 4967)" fill="#828282"/>
</g>
<g id="Vector">
<use xlink:href="#path4_fill" transform="translate(3187.61 5558.97)" fill="#927167"/>
</g>
<g id="Group">
<g id="Vector">
<use xlink:href="#path5_fill" transform="translate(3089.29 4967.86)" fill="#4F4F4F"/>
</g>
<g id="Vector">
<use xlink:href="#path6_fill" transform="translate(3145.28 4988.43)" fill="#4F4F4F"/>
</g>
<g id="Vector">
<use xlink:href="#path7_fill" transform="translate(3033.3 4967.86)" fill="#4F4F4F"/>
</g>
<g id="Vector">
<use xlink:href="#path8_fill" transform="translate(2977.31 4988.43)" fill="#4F4F4F"/>
</g>
</g>
<g id="Vector">
<use xlink:href="#path9_fill" transform="translate(2933.04 5212.41)" fill="#F2994A"/>
</g>
</g>
</g>
</g>
<defs>
<path id="path0_fill" d="M 127.42 467.224C 57.0479 467.224 6.13002e-06 410.246 6.13002e-06 339.959L 6.13002e-06 127.265C 6.13002e-06 56.9788 57.0479 0 127.42 0C 197.792 0 254.84 56.9788 254.84 127.265L 254.84 339.959C 254.84 410.246 197.792 467.224 127.42 467.224Z"/>
<path id="path1_fill" d="M 23.9335 0C 15.7519 0 7.75354 0.77993 5.82352e-06 2.25076C 58.9298 13.4381 103.486 65.1492 103.486 127.264L 103.486 339.959C 103.486 402.074 58.9298 453.786 5.82352e-06 464.972C 7.75228 466.444 15.7506 467.223 23.9322 467.223C 94.304 467.223 151.352 410.244 151.352 339.958L 151.352 127.265C 151.353 56.9788 94.3053 0 23.9335 0Z"/>
<path id="path2_fill" d="M 407 52.4108L 407 12.534C 407 5.61248 401.382 7.8063e-06 394.451 7.8063e-06L 378.725 7.8063e-06C 371.795 7.8063e-06 366.176 5.61122 366.176 12.534L 366.176 50.6227C 366.176 140.281 294.215 214.372 204.45 214.887C 114.316 215.404 40.8228 142.318 40.8228 52.4108L 40.8228 12.534C 40.8228 5.61248 35.2047 7.8063e-06 28.2735 7.8063e-06L 12.5493 7.8063e-06C 5.6193 7.8063e-06 -8.42878e-07 5.61122 -8.42878e-07 12.534L -8.42878e-07 50.4434C -8.42878e-07 155.719 79.4096 243.6 181.957 254.51C 183.068 254.628 183.913 255.555 183.913 256.671L 183.913 304.411L 90.9257 304.411C 66.9671 304.411 46.9367 321.207 41.9928 343.653C 40.7726 349.193 44.9644 354.452 50.644 354.452L 356.356 354.452C 362.036 354.452 366.226 349.193 365.007 343.653C 360.065 321.207 340.033 304.411 316.074 304.411L 223.087 304.411L 223.087 256.687C 223.087 255.57 223.933 254.643 225.046 254.527C 327.165 243.743 407 157.217 407 52.4108Z"/>
<path id="path3_fill" d="M 127.42 0C 57.0479 0 6.13002e-06 56.9788 6.13002e-06 127.265L 6.13002e-06 251.488L 254.84 251.488L 254.84 127.265C 254.84 56.9788 197.792 0 127.42 0Z"/>
<path id="path4_fill" d="M 0.0815869 -1.28574e-05L -1.90031e-05 50.0284L 39.7456 50.0284C 45.4252 50.0284 49.6158 44.7695 48.3968 39.2297C 43.4968 16.9779 23.7653 0.287132 0.0815869 -1.28574e-05Z"/>
<path id="path5_fill" d="M -1.31796e-05 250.63L 26.4067 250.63L 26.4067 5.94477C 17.9689 3.06705 9.13072 1.05454 -1.31796e-05 2.98954e-09L -1.31796e-05 250.63Z"/>
<path id="path6_fill" d="M -1.44056e-05 -1.72198e-07L -1.44056e-05 230.054L 26.4067 230.054L 26.4067 23.5396C 18.7498 14.5278 9.86515 6.59429 -1.44056e-05 -1.72198e-07Z"/>
<path id="path7_fill" d="M -1.68576e-06 250.63L 26.4067 250.63L 26.4067 2.98955e-09C 17.276 1.05454 8.43774 3.06705 -1.68576e-06 5.94477L -1.68576e-06 250.63Z"/>
<path id="path8_fill" d="M -4.59752e-07 23.5396L -4.59752e-07 230.053L 26.4067 230.053L 26.4067 -1.72198e-07C 16.5428 6.59429 7.65686 14.5278 -4.59752e-07 23.5396Z"/>
<path id="path9_fill" d="M 273.22 42.14L 9.70571 42.14C 4.34503 42.14 9.19504e-06 37.8003 9.19504e-06 32.4461L 9.19504e-06 9.69395C 9.19504e-06 4.33977 4.34503 -4.59194e-06 9.70571 -4.59194e-06L 273.22 -4.59194e-06C 278.581 -4.59194e-06 282.926 4.33977 282.926 9.69395L 282.926 32.4461C 282.925 37.8003 278.58 42.14 273.22 42.14Z"/>
</defs>
</svg>
