<svg width="1295" height="173" viewBox="0 0 1295 173" version="1.1" xmlns="http://www.w3.org/2000/svg" xmlns:xlink="http://www.w3.org/1999/xlink">
<title>ResponseTwo</title>
<desc>Created using Figma</desc>
<g id="Canvas" transform="translate(4204 -2790)">
<g id="ResponseTwo">
<use xlink:href="#path0_fill" transform="translate(-4218 2710)"/>
</g>
</g>
<defs>
<path id="path0_fill" d="M 14.2 80.8L 86.6 80.8C 101.4 80.8 112.533 84.4667 120 91.8C 127.6 99.1333 131.4 109.333 131.4 122.4C 131.4 131.733 129.333 139.733 125.2 146.4C 121.067 152.933 115 157.8 107 161L 136.4 218L 108.4 218L 82.4 165L 39.8 165L 39.8 218L 14.2 218L 14.2 80.8ZM 84.6 143.4C 91.1333 143.4 96.2667 141.533 100 137.8C 103.733 134.067 105.6 128.933 105.6 122.4C 105.6 116.133 103.8 111.267 100.2 107.8C 96.6 104.333 91.4 102.6 84.6 102.6L 39.8 102.6L 39.8 143.4L 84.6 143.4ZM 202.136 220.4C 185.069 220.4 172.403 215.933 164.136 207C 155.869 198.067 151.736 184.2 151.736 165.4C 151.736 146.6 155.869 132.733 164.136 123.8C 172.536 114.867 185.203 110.4 202.136 110.4C 217.603 110.4 229.136 114.733 236.736 123.4C 244.469 132.067 248.336 145.6 248.336 164L 248.336 171.2L 176.136 171.2C 176.536 181.6 178.736 189.267 182.736 194.2C 186.869 199 193.403 201.4 202.336 201.4C 209.003 201.4 214.403 199.733 218.536 196.4C 222.669 192.933 224.736 187.867 224.736 181.2L 248.336 181.2C 248.336 194.133 244.069 203.933 235.536 210.6C 227.003 217.133 215.869 220.4 202.136 220.4ZM 223.336 154.2C 223.336 137.667 216.269 129.4 202.136 129.4C 194.136 129.4 188.069 131.467 183.936 135.6C 179.936 139.6 177.469 145.8 176.536 154.2L 223.336 154.2ZM 309.269 220.4C 294.735 220.4 283.469 217.4 275.469 211.4C 267.602 205.4 263.669 197.6 263.669 188C 263.669 186.8 263.669 186 263.669 185.6C 263.802 185.2 263.869 184.933 263.869 184.8L 287.269 184.8L 287.269 186.4C 287.402 191.6 289.602 195.467 293.869 198C 298.269 200.4 303.735 201.6 310.269 201.6C 316.135 201.6 321.135 200.667 325.269 198.8C 329.402 196.8 331.469 193.867 331.469 190C 331.469 186.933 330.335 184.467 328.069 182.6C 325.802 180.6 323.002 179.067 319.669 178C 316.335 176.8 311.602 175.467 305.469 174C 297.202 172 290.402 170 285.069 168C 279.869 166 275.402 162.867 271.669 158.6C 267.935 154.333 266.069 148.733 266.069 141.8C 266.069 131.8 270.202 124.067 278.469 118.6C 286.735 113.133 297.469 110.4 310.669 110.4C 318.802 110.4 326.069 111.6 332.469 114C 338.869 116.4 343.802 119.8 347.269 124.2C 350.869 128.467 352.669 133.4 352.669 139L 352.469 143.4L 329.069 143.4L 329.069 142.6C 329.069 138.467 327.335 135.267 323.869 133C 320.535 130.6 315.669 129.4 309.269 129.4C 303.002 129.4 298.269 130.4 295.069 132.4C 291.869 134.267 290.269 136.733 290.269 139.8C 290.269 143.533 292.202 146.333 296.069 148.2C 300.069 149.933 306.135 151.667 314.269 153.4C 323.069 155.4 330.135 157.467 335.469 159.6C 340.935 161.6 345.669 164.8 349.669 169.2C 353.669 173.6 355.669 179.533 355.669 187C 355.669 198.6 351.469 207.067 343.069 212.4C 334.802 217.733 323.535 220.4 309.269 220.4ZM 376.891 112.8L 396.691 112.8L 398.691 126.8L 399.891 126.8C 403.357 121.467 407.891 117.4 413.491 114.6C 419.091 111.8 425.291 110.4 432.091 110.4C 445.424 110.4 455.757 114.933 463.091 124C 470.424 133.067 474.091 146.933 474.091 165.6C 474.091 183.733 470.424 197.4 463.091 206.6C 455.757 215.8 445.957 220.4 433.691 220.4C 419.024 220.4 408.491 215.533 402.091 205.8L 400.891 205.8L 400.891 252.6L 376.891 252.6L 376.891 112.8ZM 424.891 199.8C 433.691 199.8 439.957 197.2 443.691 192C 447.424 186.667 449.291 178.267 449.291 166.8L 449.291 164.2C 449.291 152.6 447.424 144.2 443.691 139C 439.957 133.667 433.691 131 424.891 131C 416.624 131 410.557 133.8 406.691 139.4C 402.824 145 400.891 153.267 400.891 164.2L 400.891 166.6C 400.891 177.533 402.824 185.8 406.691 191.4C 410.557 197 416.624 199.8 424.891 199.8ZM 540.45 220.4C 523.117 220.4 510.117 215.933 501.45 207C 492.917 198.067 488.65 184.2 488.65 165.4C 488.65 146.6 492.917 132.733 501.45 123.8C 510.117 114.867 523.117 110.4 540.45 110.4C 557.783 110.4 570.717 114.867 579.25 123.8C 587.917 132.733 592.25 146.6 592.25 165.4C 592.25 184.2 587.917 198.067 579.25 207C 570.717 215.933 557.783 220.4 540.45 220.4ZM 540.45 200.8C 549.917 200.8 556.783 198.067 561.05 192.6C 565.317 187 567.45 178.4 567.45 166.8L 567.45 164C 567.45 152.4 565.317 143.867 561.05 138.4C 556.783 132.8 549.917 130 540.45 130C 530.85 130 523.917 132.8 519.65 138.4C 515.517 143.867 513.45 152.4 513.45 164L 513.45 166.8C 513.45 178.4 515.517 187 519.65 192.6C 523.917 198.067 530.85 200.8 540.45 200.8ZM 613.609 112.8L 633.409 112.8L 635.409 126.8L 636.809 126.8C 640.676 121.6 645.409 117.6 651.009 114.8C 656.743 111.867 663.276 110.4 670.609 110.4C 681.276 110.4 689.609 113.333 695.609 119.2C 701.609 124.933 704.609 134.2 704.609 147L 704.609 218L 680.609 218L 680.609 151.2C 680.609 144 678.943 138.867 675.609 135.8C 672.409 132.733 667.609 131.2 661.209 131.2C 654.543 131.2 648.943 133.6 644.409 138.4C 639.876 143.2 637.609 149.333 637.609 156.8L 637.609 218L 613.609 218L 613.609 112.8ZM 771.769 220.4C 757.235 220.4 745.969 217.4 737.969 211.4C 730.102 205.4 726.169 197.6 726.169 188C 726.169 186.8 726.169 186 726.169 185.6C 726.302 185.2 726.369 184.933 726.369 184.8L 749.769 184.8L 749.769 186.4C 749.902 191.6 752.102 195.467 756.369 198C 760.769 200.4 766.235 201.6 772.769 201.6C 778.635 201.6 783.635 200.667 787.769 198.8C 791.902 196.8 793.969 193.867 793.969 190C 793.969 186.933 792.835 184.467 790.569 182.6C 788.302 180.6 785.502 179.067 782.169 178C 778.835 176.8 774.102 175.467 767.969 174C 759.702 172 752.902 170 747.569 168C 742.369 166 737.902 162.867 734.169 158.6C 730.435 154.333 728.569 148.733 728.569 141.8C 728.569 131.8 732.702 124.067 740.969 118.6C 749.235 113.133 759.969 110.4 773.169 110.4C 781.302 110.4 788.569 111.6 794.969 114C 801.369 116.4 806.302 119.8 809.769 124.2C 813.369 128.467 815.169 133.4 815.169 139L 814.969 143.4L 791.569 143.4L 791.569 142.6C 791.569 138.467 789.835 135.267 786.369 133C 783.035 130.6 778.169 129.4 771.769 129.4C 765.502 129.4 760.769 130.4 757.569 132.4C 754.369 134.267 752.769 136.733 752.769 139.8C 752.769 143.533 754.702 146.333 758.569 148.2C 762.569 149.933 768.635 151.667 776.769 153.4C 785.569 155.4 792.635 157.467 797.969 159.6C 803.435 161.6 808.169 164.8 812.169 169.2C 816.169 173.6 818.169 179.533 818.169 187C 818.169 198.6 813.969 207.067 805.569 212.4C 797.302 217.733 786.035 220.4 771.769 220.4ZM 883.191 220.4C 866.124 220.4 853.457 215.933 845.191 207C 836.924 198.067 832.791 184.2 832.791 165.4C 832.791 146.6 836.924 132.733 845.191 123.8C 853.591 114.867 866.257 110.4 883.191 110.4C 898.657 110.4 910.191 114.733 917.791 123.4C 925.524 132.067 929.391 145.6 929.391 164L 929.391 171.2L 857.191 171.2C 857.591 181.6 859.791 189.267 863.791 194.2C 867.924 199 874.457 201.4 883.391 201.4C 890.057 201.4 895.457 199.733 899.591 196.4C 903.724 192.933 905.791 187.867 905.791 181.2L 929.391 181.2C 929.391 194.133 925.124 203.933 916.591 210.6C 908.057 217.133 896.924 220.4 883.191 220.4ZM 904.391 154.2C 904.391 137.667 897.324 129.4 883.191 129.4C 875.191 129.4 869.124 131.467 864.991 135.6C 860.991 139.6 858.524 145.8 857.591 154.2L 904.391 154.2ZM 984.923 102.8L 940.723 102.8L 940.723 80.8L 1054.52 80.8L 1054.52 102.8L 1010.32 102.8L 1010.32 218L 984.923 218L 984.923 102.8ZM 1046.11 112.8L 1070.91 112.8L 1083.91 161.6C 1084.71 164.4 1085.85 169.267 1087.31 176.2C 1088.78 183.133 1089.71 187.733 1090.11 190L 1091.11 190C 1091.51 187.733 1092.31 183.733 1093.51 178C 1094.71 172.267 1095.91 166.867 1097.11 161.8L 1108.91 112.8L 1134.71 112.8L 1147.31 162C 1148.51 167.2 1149.71 172.667 1150.91 178.4C 1152.11 184 1152.91 187.867 1153.31 190L 1154.31 190C 1154.71 188 1155.51 184.267 1156.71 178.8C 1157.91 173.2 1159.18 167.6 1160.51 162L 1173.11 112.8L 1196.11 112.8L 1164.71 218L 1139.51 218L 1126.51 163.4C 1125.58 159.8 1124.58 155.533 1123.51 150.6C 1122.58 145.667 1121.98 142.4 1121.71 140.8L 1120.71 140.8C 1120.45 142.267 1119.85 145.467 1118.91 150.4C 1118.11 155.333 1117.25 159.6 1116.31 163.2L 1102.91 218L 1077.71 218L 1046.11 112.8ZM 1256.27 220.4C 1238.94 220.4 1225.94 215.933 1217.27 207C 1208.74 198.067 1204.47 184.2 1204.47 165.4C 1204.47 146.6 1208.74 132.733 1217.27 123.8C 1225.94 114.867 1238.94 110.4 1256.27 110.4C 1273.6 110.4 1286.54 114.867 1295.07 123.8C 1303.74 132.733 1308.07 146.6 1308.07 165.4C 1308.07 184.2 1303.74 198.067 1295.07 207C 1286.54 215.933 1273.6 220.4 1256.27 220.4ZM 1256.27 200.8C 1265.74 200.8 1272.6 198.067 1276.87 192.6C 1281.14 187 1283.27 178.4 1283.27 166.8L 1283.27 164C 1283.27 152.4 1281.14 143.867 1276.87 138.4C 1272.6 132.8 1265.74 130 1256.27 130C 1246.67 130 1239.74 132.8 1235.47 138.4C 1231.34 143.867 1229.27 152.4 1229.27 164L 1229.27 166.8C 1229.27 178.4 1231.34 187 1235.47 192.6C 1239.74 198.067 1246.67 200.8 1256.27 200.8Z"/>
</defs>
</svg>
